<svg width="500" height="500" viewBox="0 0 500 500" fill="none" xmlns="http://www.w3.org/2000/svg">
<path d="M457.656 176.953C446.485 129.531 406.641 93.75 365 93.75C301.25 93.75 264.297 135 250 155.312C235.703 135 198.75 93.75 135 93.75C93.3595 93.75 53.5158 129.531 42.3439 176.953C32.3439 219.453 32.1876 329.922 246.485 436.719C247.578 437.266 248.75 437.5 250 437.5C251.25 437.5 252.422 437.188 253.516 436.719C467.813 330 467.656 219.531 457.656 176.953Z" fill="#EF6B4D"/>
<path d="M450.937 258.826C448.359 257.42 445.234 257.498 442.734 259.139C420.39 273.983 358.047 289.061 296.875 289.061C273.75 289.061 248.672 282.108 226.484 276.014C188.906 265.623 153.359 255.78 141.172 286.17C134.844 301.951 135.625 315.936 143.515 327.576C161.797 354.608 217.969 367.186 320.234 367.186C446.25 367.186 460.859 327.03 460.859 296.873C460.859 269.217 451.562 259.217 450.859 258.826H450.937Z" fill="#C54B30"/>
<path d="M366.641 270.545C354.531 240.311 314.687 252.342 272.578 265.077C246.172 273.045 218.906 281.249 195.312 281.249C132.734 281.249 78.6719 273.358 57.2656 259.139C54.8437 257.498 51.6406 257.42 49.0625 258.827C48.3594 259.217 39.0625 269.217 39.0625 296.874C39.0625 329.374 56.0938 359.374 179.687 359.374C249.062 359.374 337.187 351.248 363.281 312.733C371.562 300.467 372.734 285.858 366.641 270.545Z" fill="#DB5A3D"/>
<path d="M453.125 93.75C422.969 93.75 398.438 69.2187 398.438 39.0625C398.438 34.7656 394.922 31.25 390.625 31.25C386.328 31.25 382.812 34.7656 382.812 39.0625C382.812 69.2187 358.281 93.75 328.125 93.75C323.828 93.75 320.312 97.2656 320.312 101.562C320.312 105.859 323.828 109.375 328.125 109.375C358.281 109.375 382.812 133.906 382.812 164.062C382.812 168.359 386.328 171.875 390.625 171.875C394.922 171.875 398.438 168.359 398.438 164.062C398.438 133.906 422.969 109.375 453.125 109.375C457.422 109.375 460.938 105.859 460.938 101.562C460.938 97.2656 457.422 93.75 453.125 93.75Z" fill="#FFB19F"/>
<path d="M125 414.062C107.734 414.062 93.75 400.078 93.75 382.812C93.75 378.516 90.2344 375 85.9375 375C81.6406 375 78.125 378.516 78.125 382.812C78.125 400.078 64.1406 414.062 46.875 414.062C42.5781 414.062 39.0625 417.578 39.0625 421.875C39.0625 426.172 42.5781 429.688 46.875 429.688C64.1406 429.688 78.125 443.672 78.125 460.938C78.125 465.234 81.6406 468.75 85.9375 468.75C90.2344 468.75 93.75 465.234 93.75 460.938C93.75 443.672 107.734 429.688 125 429.688C129.297 429.688 132.812 426.172 132.812 421.875C132.812 417.578 129.297 414.062 125 414.062Z" fill="#FFB19F"/>
<path d="M250 249.999C232.734 249.999 216.484 243.436 205.313 232.03C202.266 228.905 202.344 223.983 205.469 221.015C208.594 218.046 213.516 218.046 216.484 221.171C224.688 229.608 236.875 234.452 249.922 234.452C262.969 234.452 275.156 229.608 283.359 221.171C286.406 218.124 291.328 218.046 294.375 221.015C297.5 224.061 297.5 228.983 294.531 232.03C283.359 243.436 267.109 249.999 249.844 249.999H250Z" fill="white"/>
<path d="M289.062 203.125C284.766 203.125 281.25 199.609 281.25 195.312V187.5C281.25 183.203 284.766 179.688 289.062 179.688C293.359 179.688 296.875 183.203 296.875 187.5V195.312C296.875 199.609 293.359 203.125 289.062 203.125Z" fill="white"/>
<path d="M210.938 203.125C206.641 203.125 203.125 199.609 203.125 195.312V187.5C203.125 183.203 206.641 179.688 210.938 179.688C215.234 179.688 218.75 183.203 218.75 187.5V195.312C218.75 199.609 215.234 203.125 210.938 203.125Z" fill="white"/>
</svg>
