<svg width="733" height="760" viewBox="0 0 733 760" fill="none" xmlns="http://www.w3.org/2000/svg">
<path d="M726.679 252.941C707.285 170.616 638.116 108.5 565.828 108.5C455.158 108.5 391.007 180.11 366.188 215.372C341.368 180.11 277.218 108.5 166.548 108.5C94.2596 108.5 25.0909 170.616 5.69648 252.941C-11.6635 326.721 -11.9348 518.494 360.085 703.894C361.983 704.843 364.018 705.25 366.188 705.25C368.358 705.25 370.392 704.707 372.291 703.894C744.31 518.63 744.039 326.856 726.679 252.941Z" fill="#EF6B4D"/>
<path d="M715.015 395.073C710.539 392.631 705.114 392.767 700.774 395.615C661.985 421.384 553.757 447.56 447.562 447.56C407.417 447.56 363.882 435.489 325.364 424.91C260.128 406.872 198.419 389.783 177.262 442.541C166.276 469.938 167.632 494.215 181.33 514.423C213.067 561.349 310.581 583.185 488.114 583.185C706.877 583.185 732.239 513.473 732.239 461.122C732.239 413.111 716.1 395.751 714.879 395.073H715.015Z" fill="#C54B30"/>
<path d="M568.676 415.417C547.654 362.93 478.485 383.816 405.383 405.923C359.542 419.757 312.209 433.997 271.25 433.997C162.614 433.997 68.7619 420.299 31.6006 395.616C27.3962 392.767 21.8356 392.632 17.36 395.073C16.1394 395.751 0 413.111 0 461.122C0 517.542 29.5662 569.622 244.125 569.622C364.56 569.622 517.545 555.517 562.844 488.654C577.22 467.361 579.254 441.999 568.676 415.417Z" fill="#DB5A3D"/>
<path d="M718.812 108.5C666.461 108.5 623.875 65.9137 623.875 13.5625C623.875 6.10313 617.772 0 610.312 0C602.853 0 596.75 6.10313 596.75 13.5625C596.75 65.9137 554.164 108.5 501.812 108.5C494.353 108.5 488.25 114.603 488.25 122.062C488.25 129.522 494.353 135.625 501.812 135.625C554.164 135.625 596.75 178.211 596.75 230.562C596.75 238.022 602.853 244.125 610.312 244.125C617.772 244.125 623.875 238.022 623.875 230.562C623.875 178.211 666.461 135.625 718.812 135.625C726.272 135.625 732.375 129.522 732.375 122.062C732.375 114.603 726.272 108.5 718.812 108.5Z" fill="#FFE79F"/>
<path d="M149.188 664.562C119.214 664.562 94.9375 640.286 94.9375 610.312C94.9375 602.853 88.8344 596.75 81.375 596.75C73.9156 596.75 67.8125 602.853 67.8125 610.312C67.8125 640.286 43.5356 664.562 13.5625 664.562C6.10313 664.562 0 670.666 0 678.125C0 685.584 6.10313 691.688 13.5625 691.688C43.5356 691.688 67.8125 715.964 67.8125 745.938C67.8125 753.397 73.9156 759.5 81.375 759.5C88.8344 759.5 94.9375 753.397 94.9375 745.938C94.9375 715.964 119.214 691.688 149.188 691.688C156.647 691.688 162.75 685.584 162.75 678.125C162.75 670.666 156.647 664.562 149.188 664.562Z" fill="#FFB19F"/>
<path d="M366.188 379.748C336.214 379.748 308.005 368.356 288.61 348.555C283.321 343.13 283.456 334.585 288.881 329.431C294.306 324.278 302.851 324.278 308.004 329.703C322.245 344.35 343.403 352.759 366.052 352.759C388.701 352.759 409.859 344.35 424.1 329.703C429.389 324.413 437.933 324.278 443.223 329.431C448.648 334.721 448.648 343.265 443.494 348.555C424.1 368.356 395.89 379.748 365.916 379.748H366.188Z" fill="white"/>
<path d="M434 298.375C426.541 298.375 420.438 292.272 420.438 284.812V271.25C420.438 263.791 426.541 257.688 434 257.688C441.459 257.688 447.562 263.791 447.562 271.25V284.812C447.562 292.272 441.459 298.375 434 298.375Z" fill="white"/>
<path d="M298.375 298.375C290.916 298.375 284.812 292.272 284.812 284.812V271.25C284.812 263.791 290.916 257.688 298.375 257.688C305.834 257.688 311.938 263.791 311.938 271.25V284.812C311.938 292.272 305.834 298.375 298.375 298.375Z" fill="white"/>
</svg>
